#!OML:ASF \\sashay\E\basketball\basketball\Project 1\Capture day 1\Session 1\Subject.ASF
:FULLY-SPECIFIED
:DEGREES
164
root -15.7563 14.2088 -2.90254 183.546 -29.4527 -193.457
lowerback 33.9686 2.18343 -6.84431
upperback 14.3084 -3.2431 -2.93467
thorax -1.46499 -3.29103 1.55833
lowerneck -4.61787 6.64478 -14.5456
upperneck -12.0733 9.26941 5.83269
head -3.84626 4.82541 3.89126
rclavicle 2.82274e-014 5.1684e-015
rhumerus -32.1387 -15.8103 -67.0739
rradius 52.2352
rwrist -30.2703
rhand -29.9821 36.9034
rfingers 7.12502
rthumb -3.30013 6.94922
lclavicle 2.82274e-014 5.1684e-015
lhumerus -25.8055 25.2413 60.4002
lradius 53.6157
lwrist 41.1543
lhand -18.564 19.5239
lfingers 7.12502
lthumb 7.72602 49.3628
rfemur -55.2398 -13.7145 28.391
rtibia 52.7601
rfoot -8.96563 14.8767
rtoes -41.9915
lfemur -39.5584 29.4864 -18.6453
ltibia 80.9068
lfoot -1.02014 2.10753
ltoes -17.6264
165
root -16.1111 14.115 -3.07844 183.552 -30.2717 -194.485
lowerback 34.4755 2.34363 -7.34696
upperback 14.4888 -3.34339 -3.13105
thorax -1.4243 -3.39565 1.64391
lowerneck -5.08354 6.43838 -12.9727
upperneck -11.6196 8.93886 4.96846
head -3.48545 4.62011 3.42043
rclavicle 4.96465e-014 -4.33351e-014
rhumerus -32.4499 -17.3382 -67.3008
rradius 51.2532
rwrist -30.5424
rhand -29.7889 36.9959
rfingers 7.12502
rthumb -3.11357 7.03892
lclavicle 4.96465e-014 -4.33351e-014
lhumerus -24.9432 25.0004 60.4283
lradius 53.7552
lwrist 41.3924
lhand -18.4222 19.636
lfingers 7.12502
lthumb 7.86282 49.4697
rfemur -54.3615 -12.3374 26.8527
rtibia 51.5265
rfoot -10.2544 10.8342
rtoes -43.1228
lfemur -39.1754 28.9007 -18.5045
ltibia 78.6186
lfoot -1.84222 1.44526
ltoes -20.9531
166
root -16.4778 14.0094 -3.26157 183.571 -31.1437 -195.677
lowerback 34.9016 2.51447 -7.81033
upperback 14.7079 -3.41885 -3.36994
thorax -1.31568 -3.49037 1.65111
lowerneck -4.50765 6.24305 -13.2249
upperneck -12.016 8.6647 5.51148
head -3.70466 4.47782 3.6153
rclavicle -2.31584e-014 -3.42407e-014
rhumerus -32.8344 -18.4685 -67.6416
rradius 50.4856
rwrist -31.2143
rhand -29.8303 36.7574
rfingers 7.12502
rthumb -3.15353 6.801
lclavicle -2.31584e-014 -3.42407e-014
lhumerus -23.9808 24.3862 60.4883
lradius 53.9018
lwrist 41.8916
lhand -18.2046 19.7659
lfingers 7.12502
lthumb 8.07291 49.5918
rfemur -53.5493 -11.442 25.2415
rtibia 51.0966
rfoot -10.8354 6.11923
rtoes -43.8681
lfemur -38.6018 28.4207 -18.5486
ltibia 76.1495
lfoot -2.82253 1.08265
ltoes -24.9369
167
root -16.8576 13.8926 -3.45169 183.614 -32.0153 -196.943
lowerback 35.1553 2.68467 -8.29438
upperback 14.9689 -3.47988 -3.5778
thorax -1.09708 -3.58664 1.68745
lowerneck -3.62947 6.11219 -14.501
upperneck -12.7395 8.54207 6.98575
head -4.1689 4.41782 4.24674
rclavicle 3.04141e-014 5.91881e-014
rhumerus -33.0783 -19.539 -67.8793
rradius 49.668
rwrist -31.7314
rhand -30.0977 36.1668
rfingers 7.12502
rthumb -3.41178 6.21432
lclavicle 3.04141e-014 5.91881e-014
lhumerus -23.1478 23.7055 60.5392
lradius 54.2407
lwrist 42.4927
lhand -17.847 19.9861
lfingers 7.12502
lthumb 8.41796 49.7984
rfemur -52.6649 -10.8325 23.4904
rtibia 51.3417
rfoot -10.5434 2.57028
rtoes -41.4656
lfemur -38.0113 28.062 -18.6712
ltibia 73.4748
lfoot -3.19179 1.11476
ltoes -24.2249
168
root -17.2377 13.7598 -3.64238 183.645 -32.8594 -197.797
lowerback 35.1573 2.78248 -8.65744
upperback 15.1598 -3.5078 -3.65093
thorax -0.868369 -3.64696 1.78973
lowerneck -3.05358 5.97777 -15.0357
upperneck -13.1223 8.35719 7.60311
head -4.40558 4.32365 4.51683
rclavicle 2.8948e-014 9.68827e-014
rhumerus -33.1983 -20.366 -68.0106
rradius 48.6968
rwrist -32.1914
rhand -30.3223 35.8228
rfingers 7.12502
rthumb -3.62866 5.87396
lclavicle 2.8948e-014 9.68827e-014
lhumerus -22.8491 23.396 60.6424
lradius 55.0439
lwrist 42.7362
lhand -17.2847 20.2612
lfingers 7.12502
lthumb 8.96064 50.0509
rfemur -51.8165 -10.1264 21.996
rtibia 52.0568
rfoot -9.9111 1.44768
rtoes -37.2287
lfemur -37.9356 27.7795 -18.5021
ltibia 70.7501
lfoot -3.17042 1.02199
ltoes -23.859
169
root -17.6137 13.6135 -3.82905 183.444 -33.9003 -197.81
lowerback 35.097 2.6674 -8.4137
upperback 15.1867 -3.50721 -3.53251
thorax -0.825949 -3.62433 1.78691
lowerneck -2.51752 5.87655 -15.5352
upperneck -13.4004 8.23847 8.37369
head -4.61321 4.25202 4.83268
rclavicle -5.99149e-014 3.14887e-014
rhumerus -33.4754 -20.7571 -68.0714
rradius 47.7584
rwrist -32.7695
rhand -30.6892 35.3507
rfingers 7.12502
rthumb -3.98303 5.40817
lclavicle -5.99149e-014 3.14887e-014
lhumerus -22.571 22.9194 60.6287
lradius 55.7721
lwrist 42.8931
lhand -16.784 20.5559
lfingers 7.12502
lthumb 9.44379 50.3243
rfemur -51.1753 -9.54586 21.3188
rtibia 53.2559
rfoot -9.27613 3.01584
rtoes -33.162
lfemur -38.3876 27.3604 -17.694
ltibia 67.994
lfoot -3.68282 0.48919
ltoes -27.652
170
root -17.9908 13.4502 -4.00838 183.172 -35.0354 -197.616
lowerback 34.9579 2.47488 -7.63063
upperback 15.2732 -3.42308 -3.56978
thorax -0.74122 -3.52554 1.31806
lowerneck -2.14423 5.56501 -15.6716
upperneck -13.5247 7.85449 9.12781
head -4.6925 4.03159 5.11168
rclavicle 1.2275e-014 1.4387e-014
rhumerus -33.8528 -21.4145 -68.3315
rradius 46.8934
rwrist -33.1839
rhand -31.1834 34.6192
rfingers 7.12502
rthumb -4.46026 4.68621
lclavicle 1.2275e-014 1.4387e-014
lhumerus -21.691 22.1192 60.596
lradius 56.2563
lwrist 42.7736
lhand -16.4452 20.4551
lfingers 7.12502
lthumb 9.77065 50.2084
rfemur -51.0461 -9.23817 21.1053
rtibia 55.3072
rfoot -7.73098 6.65482
rtoes -22.5354
lfemur -39.1368 27.0559 -16.9187
ltibia 65.488
lfoot -4.25844 -0.13482
ltoes -32.822
